PathFileType  4	(X/Y/Z) C:\Users\antoi\Documents\MyRepositories\mobilecap\ResultsAnalysis
DataRate	CameraRate	NumFrames	NumMarkers	Units	OrigDataRate	OrigDataStartFrame	OrigNumFrames
100.0	100.0	4	51	mm	100.0	145	231
Frame#	Time	r_knee			r_shank_antsup			r_ankle			r_calc			r_5meta			r_toe			L_knee			L_shank_antsup			L_ankle			L_calc			L_5meta			L_toe			r_sh2			r_sh3			r_sh4			L_sh2			L_sh3			r_thigh1			r_thigh2			r_thigh3			r_thigh4			r_thigh5			L_thigh1			L_thigh2			L_thigh3			L_thigh4			r.ASIS			r.PSIS			L.ASIS			L.PSIS			C7			R_Shoulder			L_Shoulder			R_Sternum			L_Sternum			R_humerus			R_elbow_med			R_elbow_lat			R_forearm			R_wrist_radius			R_wrist_ulna			L_humerus			L_elbow_med			L_elbow_lat			L_forearm			L_wrist_radius			L_wrist_ulna			R_HJC			L_HJC			R_HJC_reg			L_HJC_reg			
		X1	Y1	Z1	X2	Y2	Z2	X3	Y3	Z3	X4	Y4	Z4	X5	Y5	Z5	X6	Y6	Z6	X7	Y7	Z7	X8	Y8	Z8	X9	Y9	Z9	X10	Y10	Z10	X11	Y11	Z11	X12	Y12	Z12	X13	Y13	Z13	X14	Y14	Z14	X15	Y15	Z15	X16	Y16	Z16	X17	Y17	Z17	X18	Y18	Z18	X19	Y19	Z19	X20	Y20	Z20	X21	Y21	Z21	X22	Y22	Z22	X23	Y23	Z23	X24	Y24	Z24	X25	Y25	Z25	X26	Y26	Z26	X27	Y27	Z27	X28	Y28	Z28	X29	Y29	Z29	X30	Y30	Z30	X31	Y31	Z31	X32	Y32	Z32	X33	Y33	Z33	X34	Y34	Z34	X35	Y35	Z35	X36	Y36	Z36	X37	Y37	Z37	X38	Y38	Z38	X39	Y39	Z39	X40	Y40	Z40	X41	Y41	Z41	X42	Y42	Z42	X43	Y43	Z43	X44	Y44	Z44	X45	Y45	Z45	X46	Y46	Z46	X47	Y47	Z47	X48	Y48	Z48	X49	Y49	Z49	X50	Y50	Z50	X51	Y51	Z51	

145	1.44000000	-55.44136	399.75310	-407.05835	-82.16270	371.47476	-381.59266	-286.67108	98.49252	-448.50257	-364.17682	63.35876	-502.25999	-188.08233	39.07312	-403.16780	-139.91906	53.40531	-456.19968	-76.16482	429.26435	-764.60396	-62.71621	350.86591	-778.05224	-258.61610	103.06289	-750.25681	-333.15904	64.25717	-706.81035	-154.16243	40.15956	-781.74727	-107.68535	56.22759	-726.62087	-144.04884	272.35779	-387.34025	-20.15663	343.70374	-417.16716	-84.24320	249.25289	-442.46535	-137.51901	400.37129	-776.24226	-189.56937	294.57084	-773.97927	-292.67262	548.96740	-359.41626	-190.60764	501.83711	-357.66423	-157.70061	534.56451	-388.14241	-272.71365	592.25085	-459.35879	-167.05643	558.77926	-449.88642	-337.85094	575.91771	-735.79915	-210.58798	517.08059	-763.57958	-388.44425	474.90435	-739.75502	-261.27580	415.74787	-733.05105	-305.09410	628.70837	-434.95036	-483.16014	685.56372	-603.27661	-315.76772	594.91717	-673.41143	-480.40810	693.68886	-509.57475	-100.74542	1017.38311	-580.20082	-66.83226	953.49956	-424.38987	-72.00989	925.46154	-728.76276	-81.45140	868.93332	-554.05386	-82.46855	861.86478	-582.44833	-174.65437	795.49349	-276.27955	-279.85812	739.18180	-264.47308	-230.36518	744.68417	-215.85043	-155.96594	619.75465	-229.38097	-115.44094	532.59912	-266.33961	-122.74535	524.02939	-222.65339	-184.85895	739.44243	-831.29752	-276.45720	656.81748	-800.05931	-255.98104	661.61670	-858.15854	-199.62827	526.76948	-876.86922	-148.20868	437.02993	-865.04194	-188.20013	419.84257	-865.48116	-392.80288	561.08881	-458.71148	-413.67042	549.16993	-647.86154	-332.26781	701.90483	-648.57135	-327.61392	715.64420	-490.12179	
146	1.45000000	-53.80376	399.13933	-409.06430	-80.72126	371.46301	-383.80647	-286.57748	98.75851	-448.92573	-364.07217	63.60039	-502.44014	-188.05992	39.15588	-403.20465	-139.88871	53.39783	-456.25017	-73.60776	426.89888	-759.04199	-60.74721	351.45196	-779.47455	-258.70048	103.09097	-750.10204	-333.21020	64.18754	-706.67739	-154.19144	40.16029	-781.73716	-107.70527	56.23946	-726.63201	-142.87522	272.22807	-389.10497	-18.93290	343.01954	-419.42351	-83.43264	248.78014	-444.15479	-135.06103	401.19069	-778.30650	-193.74071	295.90669	-779.25451	-289.72430	549.24379	-359.43832	-187.97036	501.58675	-358.44141	-154.84003	534.03860	-389.09138	-270.07854	592.70426	-459.42041	-164.55191	558.60140	-450.85212	-336.18281	576.68469	-735.46936	-209.22393	516.83336	-763.14319	-387.24142	475.94075	-739.15888	-259.52209	415.68270	-729.78545	-302.29267	629.06418	-434.56830	-480.61884	686.95836	-601.59240	-314.08857	595.21663	-672.64970	-477.29466	695.09660	-507.93863	-96.32166	1016.62157	-580.64010	-62.98708	951.83465	-424.55712	-67.86956	923.86729	-729.61792	-78.05688	867.79956	-554.82672	-79.07537	860.65386	-583.19234	-171.17602	791.21678	-279.54495	-276.24125	735.47463	-268.25631	-227.16143	739.98931	-219.30842	-158.77036	610.84650	-230.26721	-122.80702	520.64570	-264.92066	-130.94833	513.29235	-221.07064	-183.21338	738.72264	-831.48130	-276.07314	658.38471	-799.58617	-255.43041	662.31532	-857.56599	-209.19365	524.49320	-878.71190	-164.81688	430.91040	-868.76106	-205.45890	416.69989	-868.18079	-390.34016	561.93851	-457.60677	-412.25640	550.14271	-646.64774	-329.95952	702.25481	-647.80001	-324.34590	716.00253	-489.59042	
147	1.46000000	-52.16504	398.58717	-411.16525	-79.27138	371.27294	-385.96401	-286.41872	98.91217	-449.44280	-363.98389	63.81097	-502.56805	-188.03263	39.21176	-403.22447	-139.87031	53.39399	-456.30401	-71.06171	425.05833	-756.17864	-60.39839	350.92512	-779.01914	-258.78693	103.11788	-750.05170	-333.27275	64.12125	-706.55847	-154.20964	40.14929	-781.73777	-107.76520	56.26047	-726.64859	-141.88988	272.36414	-390.57927	-17.97691	342.49515	-422.02998	-82.64966	248.30732	-445.97684	-132.95807	402.35476	-779.74256	-198.86218	299.64669	-789.45367	-286.80983	550.34378	-359.52380	-184.78339	501.49422	-359.65490	-151.93201	533.97942	-390.50913	-267.26066	593.59703	-459.39777	-162.09098	558.78843	-451.96222	-334.41386	577.78793	-735.19869	-208.72084	516.22971	-763.23637	-385.90062	477.53969	-738.40598	-257.97968	416.25549	-727.30507	-299.62529	630.14548	-433.89074	-477.90363	689.05840	-600.16673	-311.89892	596.47199	-671.46242	-474.32960	697.17108	-506.37830	-92.48510	1017.03293	-581.20811	-59.53968	951.53150	-425.04520	-64.14523	923.54520	-730.49662	-75.09073	867.98204	-555.74120	-75.98616	860.70959	-584.01467	-167.25233	788.18147	-282.77606	-272.22549	732.68370	-272.04857	-223.45269	736.33145	-222.77581	-161.56565	603.14291	-231.00054	-131.05571	509.96768	-263.62164	-139.45021	504.08494	-219.40360	-181.43801	738.75698	-831.18260	-274.90415	660.48662	-798.02098	-254.58653	663.49482	-855.98209	-217.95377	523.75392	-880.21203	-179.79063	426.94276	-872.31064	-221.34658	415.59983	-870.59499	-387.96021	563.48984	-456.45674	-410.36080	551.92833	-645.45500	-327.29069	703.43809	-646.62368	-321.27445	717.09336	-488.75565	
148	1.47000000	-50.42076	398.14394	-413.18341	-77.66487	370.92709	-387.84409	-286.20448	99.10277	-449.85521	-363.91370	64.00962	-502.74100	-188.02100	39.24823	-403.24008	-139.82779	53.40259	-456.42424	-70.54371	424.81452	-756.24941	-59.98211	350.97706	-778.99688	-258.87001	103.13895	-750.06462	-333.30273	64.08145	-706.61099	-154.23036	40.12984	-781.76210	-107.86376	56.26950	-726.70315	-140.81953	272.41771	-392.01759	-17.03846	342.12680	-424.52227	-81.88265	247.81992	-447.73320	-132.37981	402.40898	-779.16284	-199.72256	300.30242	-790.37387	-283.90667	551.84882	-359.76593	-181.20743	501.54071	-361.08761	-149.07084	534.32082	-391.88887	-264.37197	594.98619	-459.31340	-159.57865	559.28465	-453.21084	-332.46806	579.34912	-734.94869	-208.95925	515.36826	-763.68926	-384.54783	479.72092	-737.51737	-257.04849	417.39928	-726.15671	-296.99906	631.81195	-433.28816	-475.19387	691.93538	-599.14021	-309.55688	598.75378	-670.57389	-471.49263	699.86707	-505.15125	-89.06665	1018.60092	-581.86207	-56.47013	952.60375	-425.54108	-60.91789	924.34243	-731.17198	-72.38715	869.32447	-556.45204	-73.10602	862.10940	-584.75754	-163.05859	786.56694	-285.60807	-267.84003	730.84301	-275.62602	-219.33997	733.52679	-226.40320	-164.30192	596.71632	-231.46005	-140.15159	500.65083	-262.61811	-147.99444	496.62205	-217.65365	-179.52139	739.42235	-830.19972	-272.86065	662.72079	-795.32157	-253.45494	665.01443	-853.35468	-225.50964	524.52625	-881.27526	-193.03425	425.31047	-875.94719	-235.33111	416.32168	-872.93948	-385.64937	565.63244	-455.73296	-408.27511	554.61439	-644.73597	-324.51191	705.61449	-645.56134	-318.30306	718.91919	-487.90544	
